<?xml version="1.0" encoding="iso-8859-1"?>
<!-- Uploaded to: SVG Repo, www.svgrepo.com, Generator: SVG Repo Mixer Tools -->
<!DOCTYPE svg PUBLIC "-//W3C//DTD SVG 1.1//EN" "http://www.w3.org/Graphics/SVG/1.1/DTD/svg11.dtd">
<svg version="1.1" id="Capa_1" xmlns="http://www.w3.org/2000/svg" xmlns:xlink="http://www.w3.org/1999/xlink" 
	 viewBox="0 0 480.33 480.33" xml:space="preserve">
<g>
	<g id="XMLID_16_">
		<g>
			<path d="M480.08,111.095v344.48c0,2.21-1.79,4-4,4H4.25c-2.21,0-4-1.79-4-4v-344.48c0-2.21,1.79-4,4-4h14.94v-4.77
				c0-0.02,0-0.05,0-0.07c0-9.32,11.54-16.35,26.84-16.35s26.84,7.03,26.84,16.35c0,0.02-0.01,0.05-0.01,0.07v4.77h25.51v-74.96
				c0-6.27,5.11-11.38,11.38-11.38h260.84c6.27,0,11.37,5.11,11.37,11.38v74.96h94.12C478.29,107.095,480.08,108.885,480.08,111.095
				z M472.08,451.575v-19.14H8.25v19.14H472.08z M472.08,424.425v-309.33h-90.12v85.31c0,5.88-4.79,10.67-10.67,10.67h-77.54v10.09
				c0,2.21-1.79,4-4,4h-99.17c-2.21,0-4-1.79-4-4v-10.09h-77.54c-5.88,0-10.67-4.79-10.67-10.67v-85.31H72.86v30.14
				c11.15,1.98,18.85,8.05,18.85,15.66v36.32c0,9.32-11.54,16.35-26.84,16.35s-26.84-7.03-26.84-16.35v-24.03
				c-11.25-2.02-18.84-8.15-18.84-15.61v-42.48H8.25v309.33H472.08z M373.96,200.405V45.015c0-1.47-1.2-2.67-2.67-2.67H109.04
				c-1.47,0-2.67,1.2-2.67,2.67v155.39c0,1.47,1.2,2.67,2.67,2.67h262.25C372.76,203.075,373.96,201.875,373.96,200.405z
				 M373.96,34.695v-2.56c0-1.86-1.51-3.38-3.37-3.38H109.75c-1.86,0-3.38,1.52-3.38,3.38v2.56c0.86-0.22,1.75-0.35,2.67-0.35
				h262.25C372.21,34.345,373.11,34.475,373.96,34.695z M285.75,217.165v-6.09h-91.17v6.09H285.75z M83.71,197.215v-2.37
				c-4.78,2.81-11.36,4.49-18.84,4.49c-7.49,0-14.06-1.68-18.84-4.49v2.37c0,5.09,11.16,8.35,18.84,8.35
				S83.71,202.305,83.71,197.215z M83.71,182.995v-10.25c-4.78,2.81-11.36,4.5-18.84,4.5c-7.49,0-14.06-1.69-18.84-4.5v10.25
				c0,5.09,11.16,8.34,18.84,8.34S83.71,188.085,83.71,182.995z M83.71,160.895c0-5.09-11.16-8.34-18.84-8.34
				s-18.84,3.25-18.84,8.34c0,5.1,11.16,8.35,18.84,8.35S83.71,165.995,83.71,160.895z M64.86,143.995v-7.8
				c-4.77,2.81-11.35,4.5-18.83,4.5s-14.06-1.69-18.84-4.5v7.8c0,3.25,5.98,7.17,14.79,8.13c4.63-4.61,12.94-7.56,22.83-7.57
				C64.84,144.365,64.86,144.185,64.86,143.995z M64.86,124.385v-10.28c-4.77,2.81-11.35,4.49-18.83,4.49s-14.06-1.68-18.84-4.49
				v10.28c0.07,5.07,11.18,8.31,18.84,8.31S64.8,129.455,64.86,124.385z M64.87,102.255c0-5.1-11.16-8.35-18.84-8.35
				s-18.84,3.25-18.84,8.35c0,5.09,11.16,8.34,18.84,8.34S64.87,107.345,64.87,102.255z M38.03,160.895c0-0.42,0.03-0.83,0.08-1.24
				c-4.21-0.75-7.92-2.09-10.92-3.86v1.78c0,2.69,4.22,5.93,10.84,7.45V160.895z"/>
			<rect x="8.25" y="432.435" style="fill:#A5BA63;" width="463.83" height="19.14"/>
			<path style="fill:#D3EF8F;" d="M472.08,115.095v309.33H8.25v-309.33h10.94v42.48c0,7.46,7.59,13.59,18.84,15.61v24.03
				c0,9.32,11.54,16.35,26.84,16.35s26.84-7.03,26.84-16.35v-36.32c0-7.61-7.7-13.68-18.85-15.66v-30.14h25.51v85.31
				c0,5.88,4.79,10.67,10.67,10.67h77.54v10.09c0,2.21,1.79,4,4,4h99.17c2.21,0,4-1.79,4-4v-10.09h77.54
				c5.88,0,10.67-4.79,10.67-10.67v-85.31H472.08z M462.87,218.195v-42.11c0-6.41-2.04-12.34-5.51-17.19v-10.25
				c0-13.33-10.84-24.17-24.17-24.17c-13.22,0-23.83,10.34-24.16,23.55c0,0.21-0.01,10.73-0.01,10.73
				c-3.33,4.67-5.34,10.36-5.5,16.58c0,0.25-0.01,42.86-0.01,42.86c0,16.37,13.32,29.68,29.68,29.68
				C449.56,247.875,462.87,234.565,462.87,218.195z M459.86,326.145v-43.74c0-2.21-1.79-4-4-4h-14v-10c0-2.21-1.79-4-4-4h-33.67
				v-9.33c0-2.21-1.79-4-4-4h-37.66c-2.21,0-4,1.79-4,4l-0.01,78.2c0,2.21,1.79,4,4,4h75.34c2.21,0,4-1.79,4-4v-3.13h14
				C458.07,330.145,459.86,328.345,459.86,326.145z M434.96,395.715v-24.54c0-14.4-11.71-26.1-26.1-26.1h-1.94
				c-14.4,0-26.1,11.7-26.1,26.1v24.54c0,14.39,11.7,26.1,26.1,26.1h1.94C423.25,421.815,434.96,410.105,434.96,395.715z
				 M363.13,376.315c0.5-0.93,0.61-2.02,0.31-3.04l-13.95-46.63c-0.63-2.11-2.86-3.32-4.98-2.68l-38.59,11.54l-30.18-6.99
				c-1.03-0.24-2.12-0.06-3.02,0.5c-0.9,0.56-1.54,1.46-1.78,2.49l-10.98,47.42c-0.24,1.04-0.06,2.12,0.51,3.02
				c0.56,0.9,1.45,1.54,2.49,1.78l16.36,3.79l3,10.02c0.52,1.74,2.11,2.86,3.83,2.86c0.38,0,0.77-0.06,1.15-0.17l20.48-6.13
				l29.87,6.92c0.3,0.07,0.6,0.11,0.9,0.11c0.74,0,1.48-0.21,2.12-0.61c0.9-0.56,1.54-1.46,1.78-2.49l3.55-15.36l14.75-4.41
				C361.77,377.945,362.62,377.255,363.13,376.315z M331.64,289.385v-49.06c0-2.21-1.79-4-4-4H152.7c-2.21,0-4,1.79-4,4v49.06
				c0,2.21,1.79,4,4,4h174.94C329.85,293.385,331.64,291.595,331.64,289.385z M222.52,415.075l0.01-109.34c0-2.21-1.79-4-4-4h-51.79
				c-9.31,0-16.88,7.58-16.88,16.89v83.56c0,9.31,7.58,16.89,16.88,16.89h51.78C220.73,419.075,222.52,417.275,222.52,415.075z
				 M122.98,402.675v-47.87c0-7.58-6.16-13.73-13.73-13.73H38.26c-7.57,0-13.73,6.15-13.73,13.73v47.87
				c0,7.57,6.16,13.73,13.73,13.73h70.99C116.82,416.405,122.98,410.245,122.98,402.675z M120.15,300.285v-63.74
				c0-7.54-6.14-13.68-13.68-13.68H31.14c-9.16,0-16.62,7.46-16.62,16.62v68.46c0,9.1,7.41,16.51,16.51,16.51
				c6.97,0,12.94-4.36,15.35-10.49h6.09c0.48,12.91,11.12,23.26,24.14,23.26s23.66-10.35,24.15-23.26h5.71
				C114.01,313.965,120.15,307.835,120.15,300.285z"/>
			<path d="M462.87,176.085v42.11c0,16.37-13.31,29.68-29.68,29.68c-16.36,0-29.68-13.31-29.68-29.68c0,0,0.01-42.61,0.01-42.86
				c0.16-6.22,2.17-11.91,5.5-16.58c0,0,0.01-10.52,0.01-10.73c0.33-13.21,10.94-23.55,24.16-23.55c13.33,0,24.17,10.84,24.17,24.17
				v10.25C460.83,163.745,462.87,169.675,462.87,176.085z M454.87,197.955v-21.87c0-11.96-9.72-21.68-21.68-21.68
				c-11.66,0-21.38,9.48-21.67,21.12c0,0.1,0,11.46,0,22.43c5.42-5.8,13.13-9.44,21.67-9.44
				C441.74,188.515,449.45,192.155,454.87,197.955z M449.36,151.215v-2.57c0-8.92-7.25-16.17-16.17-16.17
				c-8.69,0-15.94,7.06-16.16,15.75c0,0.14-0.01,2.9-0.01,2.9c4.65-2.99,10.19-4.72,16.17-4.72
				C439.15,146.405,444.71,148.175,449.36,151.215z M454.87,218.195c0-11.95-9.72-21.68-21.68-21.68
				c-11.95,0-21.68,9.73-21.68,21.68c0,11.96,9.73,21.68,21.68,21.68C445.15,239.875,454.87,230.155,454.87,218.195z"/>
			<path d="M459.86,282.405v43.74c0,2.2-1.79,4-4,4h-14v3.13c0,2.21-1.79,4-4,4h-75.34c-2.21,0-4-1.79-4-4l0.01-78.2
				c0-2.21,1.79-4,4-4h37.66c2.21,0,4,1.79,4,4v9.33h33.67c2.21,0,4,1.79,4,4v10h14C458.07,278.405,459.86,280.195,459.86,282.405z
				 M451.86,322.145v-5.07h-10v5.07H451.86z M451.86,309.075v-22.67h-10v22.67H451.86z M433.86,329.275v-7.54h-21.15
				c-7.29,0-13.49-4.76-15.67-11.33h-30.52v18.87H433.86z M433.86,313.735v-41.33h-29.67v32.81c0,4.7,3.83,8.52,8.52,8.52H433.86z
				 M396.19,302.405v-43.33h-29.66v43.33H396.19z"/>
			<path style="fill:#999999;" d="M454.87,176.085v21.87c-5.42-5.8-13.13-9.44-21.68-9.44c-8.54,0-16.25,3.64-21.67,9.44
				c0-10.97,0-22.33,0-22.43c0.29-11.64,10.01-21.12,21.67-21.12C445.15,154.405,454.87,164.125,454.87,176.085z"/>
			<rect x="441.86" y="317.075" style="fill:#666666;" width="10" height="5.07"/>
			<rect x="441.86" y="286.405" style="fill:#999999;" width="10" height="22.67"/>
			<path style="fill:#999999;" d="M449.36,148.645v2.57c-4.65-3.04-10.21-4.81-16.17-4.81c-5.98,0-11.52,1.73-16.17,4.72
				c0,0,0.01-2.76,0.01-2.9c0.22-8.69,7.47-15.75,16.16-15.75C442.11,132.475,449.36,139.725,449.36,148.645z"/>
			<path style="fill:#666666;" d="M433.19,196.515c11.96,0,21.68,9.73,21.68,21.68c0,11.96-9.72,21.68-21.68,21.68
				c-11.95,0-21.68-9.72-21.68-21.68C411.51,206.245,421.24,196.515,433.19,196.515z M450.77,218.195c0-9.69-7.89-17.57-17.58-17.57
				s-17.57,7.88-17.57,17.57c0,9.69,7.88,17.57,17.57,17.57S450.77,227.885,450.77,218.195z"/>
			<path d="M433.19,200.625c9.69,0,17.58,7.88,17.58,17.57c0,9.69-7.89,17.57-17.58,17.57s-17.57-7.88-17.57-17.57
				C415.62,208.505,423.5,200.625,433.19,200.625z M442.77,218.195c0-5.28-4.3-9.57-9.58-9.57c-5.27,0-9.57,4.29-9.57,9.57
				c0,5.28,4.3,9.57,9.57,9.57C438.47,227.765,442.77,223.475,442.77,218.195z"/>
			<path style="fill:#29ABE2;" d="M433.19,208.625c5.28,0,9.58,4.29,9.58,9.57c0,5.28-4.3,9.57-9.58,9.57
				c-5.27,0-9.57-4.29-9.57-9.57C423.62,212.915,427.92,208.625,433.19,208.625z"/>
			<path d="M434.96,371.175v24.54c0,14.39-11.71,26.1-26.1,26.1h-1.94c-14.4,0-26.1-11.71-26.1-26.1v-24.54
				c0-14.4,11.7-26.1,26.1-26.1h1.94C423.25,345.075,434.96,356.775,434.96,371.175z M426.96,395.715v-13.7h-38.14v13.7
				c0,9.98,8.12,18.1,18.1,18.1h1.94C418.84,413.815,426.96,405.695,426.96,395.715z M426.96,374.015v-2.84
				c0-8.95-6.53-16.38-15.07-17.83v20.67H426.96z M403.89,374.015v-20.67c-8.54,1.45-15.07,8.88-15.07,17.83v2.84H403.89z"/>
			<path style="fill:#666666;" d="M433.86,321.735v7.54h-67.34v-18.87h30.52c2.18,6.57,8.38,11.33,15.67,11.33H433.86z"/>
			<path style="fill:#999999;" d="M433.86,272.405v41.33h-21.15c-4.69,0-8.52-3.82-8.52-8.52v-32.81H433.86z"/>
			<path style="fill:#29ABE2;" d="M396.19,259.075v43.33h-29.66v-43.33H396.19z M393.19,295.405v-29.33c0-2.21-1.79-4-4-4h-15.66
				c-2.21,0-4,1.79-4,4v29.33c0,2.21,1.79,4,4,4h15.66C391.4,299.405,393.19,297.615,393.19,295.405z"/>
			<path d="M393.19,266.075v29.33c0,2.21-1.79,4-4,4h-15.66c-2.21,0-4-1.79-4-4v-29.33c0-2.21,1.79-4,4-4h15.66
				C391.4,262.075,393.19,263.865,393.19,266.075z M385.19,291.405v-21.33h-7.66v21.33H385.19z"/>
			<rect x="377.53" y="270.075" style="fill:#8FDCF7;" width="7.66" height="21.33"/>
			<path d="M369.81,51.565v130.76c0,2.21-1.79,4-4,4H114.52c-2.21,0-4-1.79-4-4V51.565c0-2.21,1.79-4,4-4h251.29
				C368.02,47.565,369.81,49.355,369.81,51.565z M361.81,178.325V55.565H118.52v122.76H361.81z"/>
			<path d="M363.44,373.275c0.3,1.02,0.19,2.11-0.31,3.04c-0.51,0.94-1.36,1.63-2.38,1.94l-14.75,4.41l-3.55,15.36
				c-0.24,1.03-0.88,1.93-1.78,2.49c-0.64,0.4-1.38,0.61-2.12,0.61c-0.3,0-0.6-0.04-0.9-0.11l-29.87-6.92l-20.48,6.13
				c-0.38,0.11-0.77,0.17-1.15,0.17c-1.72,0-3.31-1.12-3.83-2.86l-3-10.02l-16.36-3.79c-1.04-0.24-1.93-0.88-2.49-1.78
				c-0.57-0.9-0.75-1.98-0.51-3.02l10.98-47.42c0.24-1.03,0.88-1.93,1.78-2.49c0.9-0.56,1.99-0.74,3.02-0.5l30.18,6.99l38.59-11.54
				c2.12-0.64,4.35,0.57,4.98,2.68L363.44,373.275z M354.63,371.735l-11.66-38.96l-65.78,19.68l11.65,38.96L354.63,371.735z
				 M335.56,392.325l1.62-7.02l-13.93,4.16L335.56,392.325z M276.17,344.405l14.28-4.27l-12.62-2.92L276.17,344.405z
				 M276.69,378.695l-4.77-15.94l-3.26,14.08L276.69,378.695z"/>
			<path style="fill:#CCCCCC;" d="M361.81,55.565v122.76H118.52V55.565H361.81z M299.7,133.415c0-14.63-7.91-27.43-19.68-34.37
				c-0.76-21.34-18.34-38.46-39.85-38.46c-21.52,0-39.1,17.12-39.86,38.46c-11.76,6.94-19.68,19.74-19.68,34.37
				c0,21.99,17.9,39.89,39.89,39.89c7.14,0,13.84-1.9,19.65-5.19c5.8,3.29,12.5,5.19,19.64,5.19
				C281.81,173.305,299.7,155.405,299.7,133.415z"/>
			<path d="M358.53,190.075c2.21,0,4,1.79,4,4c0,2.21-1.79,4-4,4h-3.13c-2.21,0-4-1.79-4-4c0-2.21,1.79-4,4-4H358.53z"/>
			<path d="M331.64,240.325v49.06c0,2.21-1.79,4-4,4H152.7c-2.21,0-4-1.79-4-4v-49.06c0-2.21,1.79-4,4-4h174.94
				C329.85,236.325,331.64,238.115,331.64,240.325z M323.64,285.385v-8.35H310.8v8.35H323.64z M323.64,269.035v-8.36h-4.66v8.36
				H323.64z M323.64,252.675v-8.35H310.8v8.35H323.64z M310.98,269.035v-8.36h-8.36v8.36H310.98z M302.8,285.385v-8.35h-14.21v8.35
				H302.8z M302.8,252.675v-8.35h-14.21v8.35H302.8z M294.62,269.035v-8.36h-14.21v8.36H294.62z M280.59,285.385v-8.35h-14.21v8.35
				H280.59z M280.59,252.675v-8.35h-14.21v8.35H280.59z M272.41,269.035v-8.36H258.2v8.36H272.41z M258.38,285.385v-8.35h-36.42
				v8.35H258.38z M258.38,252.675v-8.35h-14.21v8.35H258.38z M250.2,269.035v-8.36h-14.21v8.36H250.2z M236.17,252.675v-8.35h-14.21
				v8.35H236.17z M227.99,269.035v-8.36h-14.21v8.36H227.99z M213.96,285.385v-8.35h-14.22v8.35H213.96z M213.96,252.675v-8.35
				h-14.22v8.35H213.96z M205.78,269.035v-8.36h-14.21v8.36H205.78z M191.74,285.385v-8.35h-14.21v8.35H191.74z M191.74,252.675
				v-8.35h-14.21v8.35H191.74z M183.57,269.035v-8.36h-14.21v8.36H183.57z M169.53,285.385v-8.35H156.7v8.35H169.53z
				 M169.53,252.675v-8.35H156.7v8.35H169.53z M161.36,269.035v-8.36h-4.66v8.36H161.36z"/>
			<rect x="310.8" y="277.035" style="fill:#E6E6E6;" width="12.84" height="8.35"/>
			<rect x="318.98" y="260.675" style="fill:#E6E6E6;" width="4.66" height="8.36"/>
			<rect x="310.8" y="244.325" style="fill:#E6E6E6;" width="12.84" height="8.35"/>
			<rect x="302.62" y="260.675" style="fill:#E6E6E6;" width="8.36" height="8.36"/>
			<rect x="288.59" y="277.035" style="fill:#E6E6E6;" width="14.21" height="8.35"/>
			<rect x="288.59" y="244.325" style="fill:#E6E6E6;" width="14.21" height="8.35"/>
			<path d="M280.02,99.045c11.77,6.94,19.68,19.74,19.68,34.37c0,21.99-17.89,39.89-39.89,39.89c-7.14,0-13.84-1.9-19.64-5.19
				c-5.81,3.29-12.51,5.19-19.65,5.19c-21.99,0-39.89-17.9-39.89-39.89c0-14.63,7.92-27.43,19.68-34.37
				c0.76-21.34,18.34-38.46,39.86-38.46C261.68,60.585,279.26,77.705,280.02,99.045z M291.7,133.415c0-10.25-4.86-19.38-12.4-25.22
				c-2.23,11.34-9.28,20.96-18.92,26.65c-0.39,11.05-5.3,20.97-12.93,27.97c3.81,1.6,7.98,2.49,12.36,2.49
				C277.4,165.305,291.7,150.995,291.7,133.415z M259.66,125.685c6.68-5.18,11.26-12.94,12.21-21.79
				c-3.72-1.52-7.79-2.37-12.06-2.37c-4.38,0-8.55,0.89-12.36,2.49C253.6,109.655,257.98,117.195,259.66,125.685z M271.63,95.315
				c-2.47-15.14-15.64-26.73-31.46-26.73c-15.83,0-29,11.59-31.47,26.73c3.74-1.17,7.71-1.79,11.82-1.79
				c7.14,0,13.84,1.89,19.65,5.19c5.8-3.3,12.5-5.19,19.64-5.19C263.93,93.525,267.9,94.145,271.63,95.315z M252.23,129.985
				c-0.94-8.77-5.46-16.49-12.06-21.67c-6.6,5.18-11.12,12.9-12.06,21.67c3.72,1.53,7.79,2.38,12.06,2.38
				C244.43,132.365,248.5,131.515,252.23,129.985z M240.17,158.505c6.16-4.83,10.5-11.88,11.82-19.93
				c-3.74,1.16-7.71,1.79-11.82,1.79c-4.12,0-8.09-0.63-11.83-1.79C229.66,146.625,234,153.675,240.17,158.505z M232.88,104.015
				c-3.8-1.6-7.98-2.49-12.36-2.49c-4.26,0-8.33,0.85-12.06,2.37c0.95,8.85,5.53,16.61,12.22,21.79
				C222.35,117.195,226.73,109.655,232.88,104.015z M220.52,165.305c4.38,0,8.56-0.89,12.36-2.49c-7.63-7-12.53-16.92-12.92-27.97
				c-9.64-5.69-16.69-15.31-18.93-26.65c-7.53,5.84-12.4,14.97-12.4,25.22C188.63,150.995,202.94,165.305,220.52,165.305z"/>
			<rect x="280.41" y="260.675" style="fill:#E6E6E6;" width="14.21" height="8.36"/>
			<path style="fill:#29ABE2;" d="M279.3,108.195c7.54,5.84,12.4,14.97,12.4,25.22c0,17.58-14.3,31.89-31.89,31.89
				c-4.38,0-8.55-0.89-12.36-2.49c7.63-7,12.54-16.92,12.93-27.97C270.02,129.155,277.07,119.535,279.3,108.195z"/>
			<rect x="194.58" y="211.075" style="fill:#999999;" width="91.17" height="6.09"/>
			<rect x="266.38" y="277.035" style="fill:#E6E6E6;" width="14.21" height="8.35"/>
			<rect x="266.38" y="244.325" style="fill:#E6E6E6;" width="14.21" height="8.35"/>
			<rect x="258.2" y="260.675" style="fill:#E6E6E6;" width="14.21" height="8.36"/>
			<path style="fill:#A965D1;" d="M271.87,103.895c-0.95,8.85-5.53,16.61-12.21,21.79c-1.68-8.49-6.06-16.03-12.21-21.67
				c3.81-1.6,7.98-2.49,12.36-2.49C264.08,101.525,268.15,102.375,271.87,103.895z"/>
			<path style="fill:#E8653D;" d="M240.17,68.585c15.82,0,28.99,11.59,31.46,26.73c-3.73-1.17-7.7-1.79-11.82-1.79
				c-7.14,0-13.84,1.89-19.64,5.19c-5.81-3.3-12.51-5.19-19.65-5.19c-4.11,0-8.08,0.62-11.82,1.79
				C211.17,80.175,224.34,68.585,240.17,68.585z"/>
			<rect x="221.96" y="277.035" style="fill:#E6E6E6;" width="36.42" height="8.35"/>
			<rect x="244.17" y="244.325" style="fill:#E6E6E6;" width="14.21" height="8.35"/>
			<rect x="235.99" y="260.675" style="fill:#E6E6E6;" width="14.21" height="8.36"/>
			<path style="fill:#FFFFFF;" d="M240.17,108.315c6.6,5.18,11.12,12.9,12.06,21.67c-3.73,1.53-7.8,2.38-12.06,2.38
				c-4.27,0-8.34-0.85-12.06-2.38C229.05,121.215,233.57,113.495,240.17,108.315z"/>
			<path style="fill:#8FDCF7;" d="M251.99,138.575c-1.32,8.05-5.66,15.1-11.82,19.93c-6.17-4.83-10.51-11.88-11.83-19.93
				c3.74,1.16,7.71,1.79,11.83,1.79C244.28,140.365,248.25,139.735,251.99,138.575z"/>
			<rect x="221.96" y="244.325" style="fill:#E6E6E6;" width="14.21" height="8.35"/>
			<path style="fill:#F9F1A5;" d="M220.52,101.525c4.38,0,8.56,0.89,12.36,2.49c-6.15,5.64-10.53,13.18-12.2,21.67
				c-6.69-5.18-11.27-12.94-12.22-21.79C212.19,102.375,216.26,101.525,220.52,101.525z"/>
			<path style="fill:#D3EF8F;" d="M232.88,162.815c-3.8,1.6-7.98,2.49-12.36,2.49c-17.58,0-31.89-14.31-31.89-31.89
				c0-10.25,4.87-19.38,12.4-25.22c2.24,11.34,9.29,20.96,18.93,26.65C220.35,145.895,225.25,155.815,232.88,162.815z"/>
			<rect x="213.78" y="260.675" style="fill:#E6E6E6;" width="14.21" height="8.36"/>
			<path d="M222.53,305.735l-0.01,109.34c0,2.2-1.79,4-4,4h-51.78c-9.3,0-16.88-7.58-16.88-16.89v-83.56
				c0-9.31,7.57-16.89,16.88-16.89h51.79C220.74,301.735,222.53,303.525,222.53,305.735z M214.52,398.405l0.01-88.67h-34.67v88.67
				H214.52z M214.52,411.075v-4.67h-34.66v4.67H214.52z M171.86,411.075v-4.67h-5.12c-3.18,0-6.15-0.9-8.7-2.44
				c0.82,4.05,4.41,7.11,8.7,7.11H171.86z M171.86,398.405v-88.67h-5.12c-4.89,0-8.88,3.99-8.88,8.89v70.96
				c0.04,4.87,4.01,8.82,8.88,8.82H171.86z"/>
			<polygon style="fill:#29ABE2;" points="214.53,309.735 214.52,398.405 179.86,398.405 179.86,309.735 			"/>
			<rect x="179.86" y="406.405" style="fill:#CCCCCC;" width="34.66" height="4.67"/>
			<rect x="199.74" y="277.035" style="fill:#E6E6E6;" width="14.22" height="8.35"/>
			<rect x="199.74" y="244.325" style="fill:#E6E6E6;" width="14.22" height="8.35"/>
			<rect x="191.57" y="260.675" style="fill:#E6E6E6;" width="14.21" height="8.36"/>
			<rect x="177.53" y="277.035" style="fill:#E6E6E6;" width="14.21" height="8.35"/>
			<rect x="177.53" y="244.325" style="fill:#E6E6E6;" width="14.21" height="8.35"/>
			<rect x="169.36" y="260.675" style="fill:#E6E6E6;" width="14.21" height="8.36"/>
			<path style="fill:#CCCCCC;" d="M171.86,406.405v4.67h-5.12c-4.29,0-7.88-3.06-8.7-7.11c2.55,1.54,5.52,2.44,8.7,2.44H171.86z"/>
			<path style="fill:#29ABE2;" d="M171.86,309.735v88.67h-5.12c-4.87,0-8.84-3.95-8.88-8.82v-70.96c0-4.9,3.99-8.89,8.88-8.89
				H171.86z"/>
			<rect x="156.7" y="277.035" style="fill:#E6E6E6;" width="12.83" height="8.35"/>
			<rect x="156.7" y="244.325" style="fill:#E6E6E6;" width="12.83" height="8.35"/>
			<rect x="156.7" y="260.675" style="fill:#E6E6E6;" width="4.66" height="8.36"/>
			<path d="M122.98,354.805v47.87c0,7.57-6.16,13.73-13.73,13.73H38.26c-7.57,0-13.73-6.16-13.73-13.73v-47.87
				c0-7.58,6.16-13.73,13.73-13.73h70.99C116.82,341.075,122.98,347.225,122.98,354.805z M114.98,402.675v-47.87
				c0-3.16-2.57-5.73-5.73-5.73H38.26c-3.16,0-5.73,2.57-5.73,5.73v47.87c0,3.16,2.57,5.73,5.73,5.73h70.99
				C112.41,408.405,114.98,405.835,114.98,402.675z"/>
			<path d="M120.15,236.545v63.74c0,7.55-6.14,13.68-13.68,13.68h-5.71c-0.49,12.91-11.13,23.26-24.15,23.26
				s-23.66-10.35-24.14-23.26h-6.09c-2.41,6.13-8.38,10.49-15.35,10.49c-9.1,0-16.51-7.41-16.51-16.51v-68.46
				c0-9.16,7.46-16.62,16.62-16.62h75.33C114.01,222.865,120.15,229.005,120.15,236.545z M112.15,300.285v-51.31
				c-1.74,0.8-3.66,1.25-5.68,1.25H59.93c-3.92,0-7.41,2.35-8.89,5.97c-0.85,2.09-2.05,3.95-3.51,5.56v44.21h4.91
				c0-2.16,0.01-26.49,0.01-26.6c0.33-13.21,10.94-23.56,24.16-23.56c13.33,0,24.17,10.85,24.17,24.17v25.99h5.69
				C109.6,305.965,112.15,303.425,112.15,300.285z M112.15,236.545c0-3.13-2.55-5.68-5.68-5.68H79.19v5.54c0,2.21-1.79,4-4,4
				s-4-1.79-4-4v-5.54h-6.66v5.54c0,2.21-1.79,4-4,4c-2.21,0-4-1.79-4-4v-5.54H31.14c-4.75,0-8.62,3.87-8.62,8.62v9.53
				c0,6.05,4.92,10.96,10.97,10.96c4.47,0,8.45-2.67,10.15-6.81c2.71-6.64,9.11-10.94,16.29-10.94h0.6h14.66h31.28
				C109.6,242.225,112.15,239.685,112.15,236.545z M92.78,280.795v-0.82c0-8.91-7.25-16.17-16.17-16.17
				c-8.69,0-15.95,7.07-16.16,15.76c0,0.02,0,0.44,0,1.14c4.27-3.82,9.92-6.13,16.16-6.13
				C82.82,274.575,88.49,276.935,92.78,280.795z M92.78,313.055c0-8.92-7.25-16.17-16.17-16.17c-8.91,0-16.17,7.25-16.17,16.17
				c0,8.92,7.26,16.17,16.17,16.17C85.53,329.225,92.78,321.975,92.78,313.055z M92.23,294.635c-1.83-6.93-8.13-12.06-15.62-12.06
				c-7.41,0-13.76,5.15-15.61,12.05c4.21-3.57,9.66-5.74,15.61-5.74S88.01,291.055,92.23,294.635z M39.53,307.945v-40.96
				c-1.91,0.64-3.94,0.99-6.04,0.99c-4.09,0-7.87-1.31-10.97-3.51v43.48c0,4.69,3.82,8.51,8.51,8.51S39.53,312.635,39.53,307.945z"
				/>
			<path style="fill:#666666;" d="M114.98,354.805v47.87c0,3.16-2.57,5.73-5.73,5.73H38.26c-3.16,0-5.73-2.57-5.73-5.73v-47.87
				c0-3.16,2.57-5.73,5.73-5.73h70.99C112.41,349.075,114.98,351.645,114.98,354.805z M111.84,401.405v-45.33c0-2.21-1.79-4-4-4
				H39.53c-2.21,0-4,1.79-4,4v45.33c0,2.21,1.79,4,4,4h68.31C110.05,405.405,111.84,403.615,111.84,401.405z"/>
			<path style="fill:#666666;" d="M112.15,248.975v51.31c0,3.14-2.55,5.68-5.68,5.68h-5.69v-25.99c0-13.32-10.84-24.17-24.17-24.17
				c-13.22,0-23.83,10.35-24.16,23.56c0,0.11-0.01,24.44-0.01,26.6h-4.91v-44.21c1.46-1.61,2.66-3.47,3.51-5.56
				c1.48-3.62,4.97-5.97,8.89-5.97h46.54C108.49,250.225,110.41,249.775,112.15,248.975z"/>
			<path d="M111.84,356.075v45.33c0,2.21-1.79,4-4,4H39.53c-2.21,0-4-1.79-4-4v-45.33c0-2.21,1.79-4,4-4h68.31
				C110.05,352.075,111.84,353.865,111.84,356.075z M103.84,397.405v-37.33H43.53v37.33H103.84z"/>
			<path style="fill:#999999;" d="M106.47,230.865c3.13,0,5.68,2.55,5.68,5.68c0,3.14-2.55,5.68-5.68,5.68H75.19v-1.82
				c2.21,0,4-1.79,4-4v-5.54H106.47z"/>
			<rect x="43.53" y="360.075" style="fill:#999999;" width="60.31" height="37.33"/>
			<path style="fill:#999999;" d="M92.78,279.975v0.82c-4.29-3.86-9.96-6.22-16.17-6.22c-6.24,0-11.89,2.31-16.16,6.13
				c0-0.7,0-1.12,0-1.14c0.21-8.69,7.47-15.76,16.16-15.76C85.53,263.805,92.78,271.065,92.78,279.975z"/>
			<path style="fill:#666666;" d="M76.61,296.885c8.92,0,16.17,7.25,16.17,16.17c0,8.92-7.25,16.17-16.17,16.17
				c-8.91,0-16.17-7.25-16.17-16.17C60.44,304.135,67.7,296.885,76.61,296.885z M90.29,313.055c0-7.54-6.13-13.68-13.68-13.68
				c-7.54,0-13.68,6.14-13.68,13.68c0,7.54,6.14,13.68,13.68,13.68C84.16,326.735,90.29,320.595,90.29,313.055z"/>
			<path style="fill:#999999;" d="M76.61,282.575c7.49,0,13.79,5.13,15.62,12.06c-4.22-3.58-9.67-5.75-15.62-5.75
				s-11.4,2.17-15.61,5.74C62.85,287.725,69.2,282.575,76.61,282.575z"/>
			<path d="M76.61,299.375c7.55,0,13.68,6.14,13.68,13.68c0,7.54-6.13,13.68-13.68,13.68c-7.54,0-13.68-6.14-13.68-13.68
				C62.93,305.515,69.07,299.375,76.61,299.375z M82.29,313.055c0-3.13-2.55-5.68-5.68-5.68s-5.68,2.55-5.68,5.68
				s2.55,5.68,5.68,5.68S82.29,316.185,82.29,313.055z"/>
			<path style="fill:#666666;" d="M83.71,194.845v2.37c0,5.09-11.16,8.35-18.84,8.35s-18.84-3.26-18.84-8.35v-2.37
				c4.78,2.81,11.35,4.49,18.84,4.49C72.35,199.335,78.93,197.655,83.71,194.845z"/>
			<path style="fill:#666666;" d="M83.71,172.745v10.25c0,5.09-11.16,8.34-18.84,8.34s-18.84-3.25-18.84-8.34v-10.25
				c4.78,2.81,11.35,4.5,18.84,4.5C72.35,177.245,78.93,175.555,83.71,172.745z"/>
			<path style="fill:#29ABE2;" d="M76.61,307.375c3.13,0,5.68,2.55,5.68,5.68s-2.55,5.68-5.68,5.68s-5.68-2.55-5.68-5.68
				S73.48,307.375,76.61,307.375z"/>
			<path style="fill:#999999;" d="M64.87,152.555c7.68,0,18.84,3.25,18.84,8.34c0,5.1-11.16,8.35-18.84,8.35s-18.84-3.25-18.84-8.35
				C46.03,155.805,57.19,152.555,64.87,152.555z"/>
			<path style="fill:#999999;" d="M75.19,240.405v1.82H60.53v-1.82c2.21,0,4-1.79,4-4v-5.54h6.66v5.54
				C71.19,238.615,72.98,240.405,75.19,240.405z"/>
			<path style="fill:#666666;" d="M64.86,136.195v7.8c0,0.19-0.02,0.37-0.05,0.56c-9.89,0.01-18.2,2.96-22.83,7.57
				c-8.81-0.96-14.79-4.88-14.79-8.13v-7.8c4.78,2.81,11.36,4.5,18.84,4.5S60.09,139.005,64.86,136.195z"/>
			<path style="fill:#666666;" d="M64.86,114.105v10.28c-0.06,5.07-11.17,8.31-18.83,8.31s-18.77-3.24-18.84-8.31v-10.28
				c4.78,2.81,11.36,4.49,18.84,4.49S60.09,116.915,64.86,114.105z"/>
			<path style="fill:#999999;" d="M60.53,240.405v1.82h-0.6c-7.18,0-13.58,4.3-16.29,10.94c-1.7,4.14-5.68,6.81-10.15,6.81
				c-6.05,0-10.97-4.91-10.97-10.96v-9.53c0-4.75,3.87-8.62,8.62-8.62h25.39v5.54C56.53,238.615,58.32,240.405,60.53,240.405z
				 M39,248.245c0-2.84-2.31-5.14-5.15-5.14s-5.14,2.3-5.14,5.14c0,2.84,2.3,5.15,5.14,5.15S39,251.085,39,248.245z"/>
			<path style="fill:#999999;" d="M46.03,93.905c7.68,0,18.84,3.25,18.84,8.35c0,5.09-11.16,8.34-18.84,8.34s-18.84-3.25-18.84-8.34
				C27.19,97.155,38.35,93.905,46.03,93.905z"/>
			<path style="fill:#666666;" d="M39.53,266.985v40.96c0,4.69-3.81,8.51-8.5,8.51s-8.51-3.82-8.51-8.51v-43.48
				c3.1,2.2,6.88,3.51,10.97,3.51C35.59,267.975,37.62,267.625,39.53,266.985z"/>
			<path style="fill:#666666;" d="M38.11,159.655c-0.05,0.41-0.08,0.82-0.08,1.24v4.13c-6.62-1.52-10.84-4.76-10.84-7.45v-1.78
				C30.19,157.565,33.9,158.905,38.11,159.655z"/>
			<path d="M33.85,243.105c2.84,0,5.15,2.3,5.15,5.14c0,2.84-2.31,5.15-5.15,5.15s-5.14-2.31-5.14-5.15
				C28.71,245.405,31.01,243.105,33.85,243.105z"/>
		</g>
		<g>
		</g>
	</g>
</g>
</svg>