<?xml version="1.0" encoding="iso-8859-1"?>
<!-- Uploaded to: SVG Repo, www.svgrepo.com, Generator: SVG Repo Mixer Tools -->
<!DOCTYPE svg PUBLIC "-//W3C//DTD SVG 1.1//EN" "http://www.w3.org/Graphics/SVG/1.1/DTD/svg11.dtd">
<svg fill="#000000" height="800px" width="800px" version="1.1" id="Capa_1" xmlns="http://www.w3.org/2000/svg" xmlns:xlink="http://www.w3.org/1999/xlink" 
	 viewBox="0 0 494.959 494.959" xml:space="preserve">
<g>
	<path d="M276.026,105.98c9.66,14.115,25.887,23.399,44.244,23.399c18.38,0,34.625-9.306,44.28-23.45
		c22.146-11.938,21.882-32.25,21.763-40.984C385.82,28.912,358.888,1.62,322.274,0.051c-19.317-0.821-30.501,8.581-33.923,12.025
		c-2.991,0.678-9.642,2.705-16.295,8.248c-7.913,6.591-17.451,19.646-17.958,44.408C253.919,73.501,253.516,93.909,276.026,105.98z
		 M320.27,120.879c-24.859,0-45.084-20.225-45.084-45.084V63.237c11.655-4.42,18.839-16.708,22.369-24.55
		c9.609,10.114,33.232,30.551,67.799,31.61v5.498C365.354,100.654,345.13,120.879,320.27,120.879z M262.596,64.906
		c0.826-40.374,27.357-44.55,28.461-44.705c1.059-0.136,2.045-0.685,2.731-1.502c0.377-0.448,9.419-10.951,28.122-10.156
		c31.963,1.37,55.474,25.14,55.902,56.518c0.079,5.746,0.196,14.84-5.404,23.053c0.936-3.959,1.445-8.079,1.445-12.319v-5.832
		c1.664-0.64,2.816-2.273,2.728-4.152c-0.112-2.344-2.101-4.161-4.447-4.043c-44.758,2.131-72.33-33.373-72.6-33.727l-0.01,0.007
		c-0.52-0.688-1.245-1.23-2.133-1.503c-2.24-0.686-4.617,0.572-5.309,2.814c-0.078,0.253-7.997,25.369-24.218,26.959
		c-2.336,0.229-4.044,2.308-3.815,4.644c0.159,1.627,1.219,2.946,2.636,3.522v11.311c0,4.362,0.536,8.6,1.525,12.663
		C263.217,81.355,262.429,73.085,262.596,64.906z"/>
	<path d="M321.753,87.107h-5.393c-10.273,0-18.631,8.358-18.631,18.631v5.572c0,2.347,1.902,4.25,4.25,4.25
		c2.348,0,4.25-1.903,4.25-4.25v-5.572c0-5.586,4.545-10.131,10.131-10.131h5.393c5.586,0,10.131,4.545,10.131,10.131v5.572
		c0,2.347,1.902,4.25,4.25,4.25c2.348,0,4.25-1.903,4.25-4.25v-5.572C340.384,95.465,332.026,87.107,321.753,87.107z"/>
	<path d="M324.065,103.574h-10.019c-2.348,0-4.25,1.903-4.25,4.25c0,2.347,1.902,4.25,4.25,4.25h10.019
		c2.348,0,4.25-1.903,4.25-4.25C328.315,105.476,326.413,103.574,324.065,103.574z"/>
	<path d="M160.119,130.783c-7.95,0-15.271,3.957-19.77,10.618H90.93c-7.857,0-14.25,6.393-14.25,14.25v45.997
		c0,4.525,2.127,8.556,5.427,11.168c-3.299,2.612-5.427,6.643-5.427,11.168v0.645c0,7.857,6.393,14.25,14.25,14.25h24.831v31.185
		c-5.945,0.389-10.667,5.336-10.667,11.378c0,4.267,2.356,7.988,5.832,9.947L23.008,488.982c-0.585,1.314-0.465,2.836,0.319,4.042
		c0.784,1.207,2.125,1.935,3.564,1.935h12.307c1.679,0,3.201-0.988,3.883-2.522l51.133-114.918l27.802,27.625v7.898
		c0,2.347,1.903,4.25,4.25,4.25c2.347,0,4.25-1.903,4.25-4.25v-7.901l27.772-27.667l51.153,114.962
		c0.682,1.534,2.204,2.522,3.883,2.522h12.308c1.439,0,2.78-0.728,3.564-1.935c0.784-1.206,0.904-2.728,0.319-4.042l-87.765-197.245
		c3.845-1.839,6.513-5.756,6.513-10.294c0-6.042-4.722-10.99-10.667-11.378V238.88h24.831c7.857,0,14.25-6.393,14.25-14.25v-0.645
		c0-4.525-2.127-8.556-5.427-11.168c3.299-2.612,5.427-6.643,5.427-11.168v-22.981l73.339,0.001v110.247
		c0,2.347,1.902,4.25,4.25,4.25h2.523v168.072c0,17.122,13.931,31.052,31.053,31.052s31.053-13.93,31.053-31.052V349.127h2.807
		v112.109c0,17.122,13.931,31.052,31.053,31.052s31.053-13.93,31.053-31.052V293.164h2.523c2.348,0,4.25-1.903,4.25-4.25v-73.658
		l40.981,40.777c4.655,4.656,10.772,6.984,16.887,6.984c6.116,0,12.232-2.328,16.888-6.984c9.312-9.312,9.313-24.463,0-33.776
		c0,0-60.861-60.215-81.205-81.206c-5.657-5.837-13.004-10.268-21.748-10.268H338.71c-2.172,0-3.994,1.637-4.226,3.796
		c-0.661,6.15-6.893,10.968-14.188,10.968c-7.295,0-13.527-4.818-14.189-10.968c-0.232-2.159-2.055-3.796-4.226-3.796H160.119z
		 M390.579,159.521l19.567,19.567l-19.567,19.568V159.521z M320.296,154.047c10.314,0,19.065-6.128,21.836-14.764h20.25
		c10.861,0,19.697,8.836,19.697,19.696v125.685H258.514v-21.282h52.587c2.348,0,4.25-1.903,4.25-4.25c0-2.347-1.902-4.25-4.25-4.25
		h-52.587v-95.903c0-10.86,8.835-19.696,19.695-19.696h20.25C301.232,147.92,309.982,154.047,320.296,154.047z M85.18,155.651
		c0-3.17,2.58-5.75,5.75-5.75h71.495c3.171,0,5.75,2.58,5.75,5.75v45.997c0,3.17-2.579,5.75-5.75,5.75H90.93
		c-3.17,0-5.75-2.58-5.75-5.75V155.651z M122.622,292.859l-86.185,193.6h-3.003l86.142-193.6H122.622z M97.911,369.21l24.105-54.173
		v78.124L97.911,369.21z M130.515,393.143v-78.083l24.073,54.103L130.515,393.143z M129.899,292.859h3.046l86.143,193.6h-3.004
		L129.899,292.859z M139.762,281.443c0,1.608-1.308,2.917-2.916,2.917h-20.334c-1.608,0-2.916-1.308-2.916-2.917
		s1.308-2.917,2.916-2.917h20.334C138.453,278.526,139.762,279.834,139.762,281.443z M129.095,270.026h-4.833V238.88h4.833V270.026z
		 M168.176,224.63c0,3.17-2.579,5.75-5.75,5.75H90.93c-3.17,0-5.75-2.58-5.75-5.75v-0.645c0-3.17,2.58-5.75,5.75-5.75h71.495
		c3.171,0,5.75,2.58,5.75,5.75V224.63z M162.426,141.401h-10.012c2.309-1.366,4.95-2.118,7.706-2.118h61.187v30.884l-44.631-0.001
		v-14.516C176.676,147.794,170.283,141.401,162.426,141.401z M229.807,170.167v-30.884h28.253
		c-4.973,5.086-8.046,12.038-8.046,19.696v11.188H229.807z M375.305,313.14l-14.97-14.97c-1.66-1.659-4.352-1.659-6.01,0
		c-1.66,1.66-1.66,4.351,0,6.011l20.979,20.98v110.813h-7.219c-2.348,0-4.25,1.903-4.25,4.25c0,2.347,1.902,4.25,4.25,4.25h7.219
		v7.186h-30.273c-2.348,0-4.25,1.903-4.25,4.25s1.902,4.25,4.25,4.25h30.273v1.076c0,12.435-10.117,22.552-22.553,22.552
		S330.2,473.671,330.2,461.236V344.877c0-2.347-1.902-4.25-4.25-4.25h-11.307c-2.348,0-4.25,1.903-4.25,4.25v116.359
		c0,12.435-10.117,22.552-22.553,22.552c-12.436,0-22.553-10.117-22.553-22.552v-1.076h30.385c2.348,0,4.25-1.903,4.25-4.25
		s-1.902-4.25-4.25-4.25h-30.385V324.915l20.735-20.735c1.66-1.66,1.66-4.351,0-6.011c-1.66-1.659-4.352-1.659-6.01,0
		l-14.726,14.725v-19.731h110.018V313.14z M459.325,250.022c-2.905,2.906-6.769,4.506-10.877,4.506c-4.109,0-7.973-1.6-10.885-4.513
		l-43.268-43.054l21.862-21.862l43.168,43.168C465.322,234.265,465.322,244.025,459.325,250.022z"/>
	<path d="M334.508,198.128l14.375,10c0.729,0.507,1.578,0.761,2.427,0.761c0.848,0,1.695-0.253,2.424-0.759l14.403-10
		c1.144-0.795,1.826-2.099,1.826-3.491v-18.75c0-2.347-1.902-4.25-4.25-4.25h-28.778c-2.348,0-4.25,1.903-4.25,4.25v18.75
		C332.684,196.031,333.365,197.334,334.508,198.128z M341.184,180.139h20.278v12.277l-10.151,7.047l-10.127-7.045V180.139z"/>
	<path d="M344.768,169.806h20.944c2.348,0,4.25-1.903,4.25-4.25c0-2.347-1.902-4.25-4.25-4.25h-20.944
		c-2.348,0-4.25,1.903-4.25,4.25C340.518,167.903,342.421,169.806,344.768,169.806z"/>
	<path d="M114.89,201.292c12.268,0,22.25-9.981,22.25-22.25s-9.982-22.25-22.25-22.25c-12.269,0-22.25,9.981-22.25,22.25
		S102.622,201.292,114.89,201.292z M114.89,165.292c7.581,0,13.75,6.169,13.75,13.75s-6.169,13.75-13.75,13.75
		c-7.582,0-13.75-6.169-13.75-13.75S107.309,165.292,114.89,165.292z"/>
	<path d="M152.224,200.626c2.347,0,4.25-1.903,4.25-4.25v-37c0-2.347-1.903-4.25-4.25-4.25s-4.25,1.903-4.25,4.25v37
		C147.974,198.723,149.877,200.626,152.224,200.626z"/>
	<path d="M334.223,263.382h34c2.348,0,4.25-1.903,4.25-4.25c0-2.347-1.902-4.25-4.25-4.25h-34c-2.348,0-4.25,1.903-4.25,4.25
		C329.973,261.479,331.876,263.382,334.223,263.382z"/>
	<path d="M276.223,345.792c-2.348,0-4.25,1.903-4.25,4.25v60c0,2.347,1.902,4.25,4.25,4.25c2.348,0,4.25-1.903,4.25-4.25v-60
		C280.473,347.695,278.571,345.792,276.223,345.792z"/>
</g>
</svg>