<?xml version="1.0" encoding="iso-8859-1"?>
<!-- Uploaded to: SVG Repo, www.svgrepo.com, Generator: SVG Repo Mixer Tools -->
<svg fill="#000000" height="800px" width="800px" version="1.1" id="Layer_1" xmlns="http://www.w3.org/2000/svg" xmlns:xlink="http://www.w3.org/1999/xlink" 
	 viewBox="0 0 480 480" xml:space="preserve">
<g>
	<g>
		<path d="M409.711,70.289C364.384,24.962,304.113,0,240,0C175.893,0,115.623,24.962,70.295,70.289C24.964,115.618,0,175.889,0,240
			s24.964,124.382,70.295,169.711C115.623,455.038,175.893,480,240,480c64.113,0,124.384-24.962,169.711-70.289
			C455.037,364.384,480,304.113,480,240S455.037,115.616,409.711,70.289z M443.724,156.987H298.413c-0.704,0-1.39,0.074-2.053,0.213
			c-0.636-0.127-1.283-0.213-1.945-0.213H210.91l77.655-131.575C359.08,41.362,416.85,91.276,443.724,156.987z M333.676,254.6
			l-45.021,77.62h-77.862H198.63l-45.001-77.62l18.619-32.112c0.008-0.013,0.018-0.024,0.026-0.038l26.832-45.462h89.549
			L333.676,254.6z M240,20c9.319,0,18.503,0.588,27.52,1.718l-81.389,137.904c-0.74,0.677-1.396,1.456-1.913,2.349l-42.247,72.862
			l-75.807-129.51C106.446,53.448,169.387,20,240,20z M20,240c0-42.814,12.306-82.803,33.549-116.638l91.713,156.684
			c0.004,0.008,0.01,0.014,0.015,0.022l30.236,52.152H40.29C27.278,304.155,20,272.914,20,240z M50.847,352.22h142.022h17.924
			h66.299l-61.459,106.424C145.56,450.886,85.31,410.091,50.847,352.22z M240,460c-0.682,0-1.359-0.02-2.04-0.026l65.115-112.753
			c0.001-0.002,0.002-0.004,0.003-0.006l42.956-74.06l65.075,104.955C370.745,428.022,309.042,460,240,460z M340.738,226.66
			c-0.229-0.369-0.483-0.71-0.75-1.038l-28.212-48.634h139.013C456.771,196.959,460,218.108,460,240
			c0,44.538-13.316,86.017-36.157,120.692L340.738,226.66z"/>
	</g>
</g>
</svg>